<?xml version="1.0" encoding="utf-8"?>
<!-- Generator: Adobe Illustrator 28.1.0, SVG Export Plug-In . SVG Version: 6.00 Build 0)  -->
<svg version="1.1" id="Flat" xmlns="http://www.w3.org/2000/svg" xmlns:xlink="http://www.w3.org/1999/xlink" x="0px" y="0px"
	 viewBox="0 0 256 256" style="enable-background:new 0 0 256 256;" xml:space="preserve">
<style type="text/css">
	.st0{fill:#303030;}
</style>
<path class="st0" d="M28,64c0-6.6,5.4-12,12-12h176c6.6,0,12,5.4,12,12s-5.4,12-12,12H40C33.4,76,28,70.6,28,64z M132.1,116H34.7
	c-3.7,0-6.6,5.4-6.6,12c0,6.6,3,12,6.6,12h97.4c3.7,0,6.6-5.4,6.6-12C138.7,121.4,135.8,116,132.1,116z M105.7,180H36
	c-4.4,0-8,5.4-8,12s3.6,12,8,12h69.6c4.4,0,8-5.4,8-12S110.1,180,105.7,180z M226,153.1h-18v-18.7c0-10.3-8.1-18.7-18-18.7
	s-18,8.4-18,18.7v18.7h-18c-10,0-18,8.4-18,18.7c0,10.3,8.1,18.7,18,18.7h18v18.7c0,10.3,8.1,18.7,18,18.7s18-8.4,18-18.7v-18.7h18
	c10,0,18-8.4,18-18.7C244,161.5,235.9,153.1,226,153.1L226,153.1z"/>
</svg>
