<?xml version="1.0" encoding="utf-8"?>
<!-- Generator: Adobe Illustrator 28.1.0, SVG Export Plug-In . SVG Version: 6.00 Build 0)  -->
<svg version="1.1" id="Capa_1" xmlns="http://www.w3.org/2000/svg" xmlns:xlink="http://www.w3.org/1999/xlink" x="0px" y="0px"
	 viewBox="0 0 408 408" style="enable-background:new 0 0 408 408;" xml:space="preserve">
<style type="text/css">
	.st0{fill:#303030;}
</style>
<g>
	<g id="keyboard-control">
		<path class="st0" d="M51,153c-28,0-51,22.9-51,51s23,51,51,51s51-22.9,51-51S79.1,153,51,153z M357,153c-28,0-51,22.9-51,51
			s23,51,51,51s51-22.9,51-51S385,153,357,153z M204,153c-28.1,0-51,22.9-51,51s22.9,51,51,51s51-22.9,51-51S232.1,153,204,153z"/>
	</g>
</g>
</svg>
