<?xml version="1.0" encoding="utf-8"?>
<!-- Generator: Adobe Illustrator 28.1.0, SVG Export Plug-In . SVG Version: 6.00 Build 0)  -->
<svg version="1.1" id="Layer_1" focusable="false" xmlns="http://www.w3.org/2000/svg" xmlns:xlink="http://www.w3.org/1999/xlink"
	 x="0px" y="0px" viewBox="0 0 14 14" style="enable-background:new 0 0 14 14;" xml:space="preserve">
<style type="text/css">
	.st0{fill:#E22727;}
</style>
<path class="st0" d="M7,12c-0.6,0-1-0.5-1-1c0-0.6,0.5-1,1-1c0.6,0,1,0.5,1,1C8,11.5,7.6,12,7,12z M8.4,3.6C8.3,4.3,7.6,7.6,7.4,8.8
	C7.4,9,7.2,9.1,7,9.1h0C6.8,9.1,6.6,9,6.6,8.7C6.3,7.6,5.7,4.2,5.6,3.5C5.5,2.7,6.2,2,7,2C7.8,2,8.5,2.7,8.4,3.6L8.4,3.6z"/>
</svg>
