<?xml version="1.0" encoding="utf-8"?>
<!-- Generator: Adobe Illustrator 28.1.0, SVG Export Plug-In . SVG Version: 6.00 Build 0)  -->
<svg version="1.1" id="Layer_1" xmlns="http://www.w3.org/2000/svg" xmlns:xlink="http://www.w3.org/1999/xlink" x="0px" y="0px"
	 viewBox="0 0 32 32" style="enable-background:new 0 0 32 32;" xml:space="preserve">
<style type="text/css">
	.st0{fill:#303030;}
</style>
<path class="st0" d="M15.1,15.1L21.3,9c0.2-0.2,0.6-0.4,0.9-0.4c0.3,0,0.6,0.1,0.9,0.4c0.5,0.5,0.5,1.3,0,1.7L17.7,16l5.3,5.3
	c0.5,0.5,0.5,1.3,0,1.7c-0.5,0.5-1.3,0.5-1.7,0l-6.2-6.2C14.6,16.4,14.6,15.6,15.1,15.1z M13.9,23c0.5,0.5,1.3,0.5,1.7,0
	c0.5-0.5,0.5-1.3,0-1.7L10.4,16l5.3-5.3c0.5-0.5,0.5-1.3,0-1.7c-0.2-0.2-0.6-0.4-0.9-0.4S14.1,8.7,13.9,9l-6.2,6.2
	c-0.5,0.5-0.5,1.3,0,1.7L13.9,23z M0,16C0,7.2,7.2,0,16,0c8.8,0,16,7.2,16,16c0,8.8-7.2,16-16,16S0,24.8,0,16z M2.5,16
	c0,7.5,6.1,13.5,13.5,13.5c7.5,0,13.5-6.1,13.5-13.5c0-7.5-6.1-13.5-13.5-13.5C8.5,2.5,2.5,8.5,2.5,16z"/>
</svg>
