<?xml version="1.0" encoding="utf-8"?>
<!-- Generator: Adobe Illustrator 28.1.0, SVG Export Plug-In . SVG Version: 6.00 Build 0)  -->
<svg version="1.1" id="Layer_1" xmlns="http://www.w3.org/2000/svg" xmlns:xlink="http://www.w3.org/1999/xlink" x="0px" y="0px"
	 viewBox="0 0 32 32" style="enable-background:new 0 0 32 32;" xml:space="preserve">
<style type="text/css">
	.st0{fill:#303030;}
</style>
<path class="st0" d="M16.9,16.9L10.7,23c-0.2,0.2-0.6,0.4-0.9,0.4c-0.3,0-0.6-0.1-0.9-0.4c-0.5-0.5-0.5-1.3,0-1.7l5.3-5.3L9,10.7
	C8.5,10.2,8.5,9.5,9,9c0.5-0.5,1.3-0.5,1.7,0l6.2,6.2C17.4,15.6,17.4,16.4,16.9,16.9z M18.1,9c-0.5-0.5-1.3-0.5-1.7,0
	c-0.5,0.5-0.5,1.3,0,1.7l5.3,5.3l-5.3,5.3c-0.5,0.5-0.5,1.3,0,1.7c0.2,0.2,0.6,0.4,0.9,0.4s0.6-0.1,0.9-0.4l6.2-6.2
	c0.5-0.5,0.5-1.3,0-1.7L18.1,9z M32,16c0,8.8-7.2,16-16,16S0,24.8,0,16C0,7.2,7.2,0,16,0S32,7.2,32,16z M29.5,16
	c0-7.5-6.1-13.5-13.5-13.5C8.5,2.5,2.5,8.5,2.5,16c0,7.5,6.1,13.5,13.5,13.5C23.5,29.5,29.5,23.5,29.5,16z"/>
</svg>
